<?xml version="1.0" encoding="UTF-8"?>
<!DOCTYPE svg PUBLIC "-//W3C//DTD SVG 1.1//EN" "http://www.w3.org/Graphics/SVG/1.1/DTD/svg11.dtd">
<svg version="1.1" xmlns="http://www.w3.org/2000/svg" xmlns:xlink="http://www.w3.org/1999/xlink" x="0" y="0" width="50" height="50" viewBox="0, 0, 50, 50">
  <g id="Layer_1">
    <path d="M43.553,25.108 C42.67,25.108 41.827,25.279 41.059,25.589 C40.546,20.005 35.674,15.625 29.731,15.625 C28.277,15.625 26.866,15.9 25.614,16.365 C25.128,16.546 25,16.733 25,17.094 L25,36.757 C25,37.137 25.305,37.452 25.69,37.49 C25.706,37.491 43.44,37.5 43.555,37.5 C47.115,37.5 50,34.726 50,31.304 C50,27.882 47.113,25.108 43.553,25.108 z M19.531,37.5 L21.094,37.5 L21.875,26.552 L21.094,15.625 L19.531,15.625 L18.75,26.552 L19.531,37.5 z M14.844,37.5 L13.281,37.5 L12.5,29.553 L13.281,21.875 L14.844,21.875 L15.625,29.688 L14.844,37.5 z M7.031,37.5 L8.594,37.5 L9.375,31.25 L8.594,25 L7.031,25 L6.25,31.25 L7.031,37.5 z M0.781,34.375 L2.344,34.375 L3.125,31.25 L2.344,28.125 L0.781,28.125 L0,31.25 L0.781,34.375 z" fill="#000000"/>
  </g>
</svg>
